<svg width="242" height="232" viewBox="0 0 242 232" fill="none" xmlns="http://www.w3.org/2000/svg">
<g clip-path="url(#clip0_17_1025)">
<path d="M176.47 81.2978C185.061 86.2432 185.107 94.2872 176.574 99.2429L136.408 122.521C127.874 127.472 113.936 127.467 105.345 122.521L64.9041 99.2325C56.3137 94.2872 56.267 86.2432 64.8003 81.2874L104.967 58.0142C113.5 53.0636 127.439 53.0688 136.029 58.0142L176.47 81.2978Z" fill="white"/>
<path d="M149.121 78.9182V78.9079L139.145 73.1658C137.885 80.289 136.002 87.4071 138.808 94.4423C139.851 97.065 141.687 99.4239 143.975 101.638L156.985 94.0958C155.958 93.087 154.977 92.0524 154.059 91.0127C150.547 87.0088 148.923 83.2066 149.115 78.913L149.121 78.9182Z" fill="#FF7345"/>
<path d="M79.5736 86.1293C77.0732 87.583 77.0784 89.9367 79.6047 91.3955L83.0076 93.3508C83.2048 90.3453 83.0388 87.3502 82.6393 84.355L79.5736 86.1293Z" fill="#FF7345"/>
<path d="M135.707 71.2001L135.712 71.2053L135.707 71.2001Z" fill="#FF7345"/>
<path d="M134.389 93.4854C132.148 86.0569 134.607 78.6337 135.707 71.2053L125.047 65.0701C123.205 64.0045 120.539 63.7251 118.256 64.2114C119.564 68.4119 120.181 72.6641 119.973 76.937C119.833 79.808 119.361 82.6841 118.547 85.5189C117.618 88.7107 116.015 91.9076 116.529 95.1717C117.385 100.624 123.221 105.926 128.678 110.51L141.024 103.355C137.803 100.334 135.468 97.0909 134.389 93.4905V93.4854Z" fill="#FF7345"/>
<path d="M161.628 86.1242V86.1138L153.038 81.1685C153.095 82.0272 153.235 82.8807 153.541 83.7394C154.475 86.3621 156.508 88.8141 158.718 91.1472C159.113 91.561 159.517 91.9748 159.927 92.3835L161.654 91.3799C164.165 89.9263 164.155 87.5726 161.634 86.1138L161.628 86.1242Z" fill="#FF7345"/>
<path d="M112.669 96.0615C111.279 90.2108 115.367 84.1584 115.859 78.3078C116.212 74.1073 115.782 69.9224 114.646 65.7995L101.942 73.1607C103.752 80.2684 101.677 87.5985 100.873 94.7941C100.551 97.6858 100.977 100.779 101.319 103.888L116.191 112.444C118.718 113.898 122.795 113.898 125.306 112.444L125.814 112.149C125.264 111.679 124.73 111.208 124.201 110.732C119.278 106.299 113.94 101.379 112.669 96.0563V96.0615Z" fill="#FF7345"/>
<path d="M98.3313 75.2661L86.3535 82.203C87.0383 86.4346 87.3962 90.6816 86.893 94.9286C86.8671 95.1304 86.8359 95.3424 86.8048 95.5442L96.8218 101.307C96.6558 98.8653 96.635 96.4339 96.9463 93.9613C97.7296 87.7588 99.3792 81.4219 98.3261 75.2505V75.2609L98.3313 75.2661Z" fill="#FF7345"/>
<path d="M192.343 90.8626C192.592 86.0259 189.516 81.1426 183.105 77.4491V77.4594L142.674 54.1706C130.385 47.094 110.517 47.094 98.3055 54.1706L58.1288 77.4439C51.9921 80.9977 48.807 85.669 48.864 90.3298C48.864 90.2781 48.864 141.191 48.864 141.191C48.8485 145.852 51.9402 150.528 58.1184 154.082V154.092L98.5597 177.376V177.365C110.854 184.442 130.722 184.442 142.933 177.365L183.099 154.087V154.077C189.179 150.564 192.214 145.955 192.229 141.351L192.369 90.3453C192.369 90.516 192.354 90.6868 192.349 90.8575L192.343 90.8626ZM176.563 99.2377L136.397 122.516C127.853 127.467 113.925 127.462 105.335 122.516L64.8984 99.2325C56.308 94.282 56.2613 86.2432 64.7947 81.2874L104.961 58.0141C113.505 53.0636 127.433 53.0688 136.023 58.0141L176.465 81.2978C185.055 86.2483 185.102 94.2872 176.568 99.2429L176.563 99.2377Z" fill="#212121"/>
</g>
<defs>
<clipPath id="clip0_17_1025">
<rect width="143.506" height="133.81" fill="white" transform="translate(48.8633 48.8631)"/>
</clipPath>
</defs>
</svg>
